<svg width="15" height="18" viewBox="0 0 15 18" fill="none" xmlns="http://www.w3.org/2000/svg">
<path d="M7.66016 17.4922C7.85547 17.4922 8.04101 17.4141 8.1875 17.2578L14.3398 11.1152C14.5254 10.9199 14.5937 10.7539 14.5937 10.5586C14.5937 10.168 14.3008 9.875 13.9102 9.875C13.7246 9.875 13.5391 9.93359 13.4121 10.0605L10.8926 12.5605L8.24609 15.4219L8.36328 13.2539L8.36328 1.04687C8.36328 0.646484 8.07031 0.353515 7.66016 0.353515C7.25977 0.353515 6.9668 0.646484 6.9668 1.04687L6.9668 13.2539L7.08398 15.4316L4.4375 12.5605L1.91797 10.0605C1.79102 9.94336 1.60547 9.875 1.41992 9.875C1.0293 9.875 0.736328 10.168 0.736328 10.5586C0.736328 10.7539 0.804687 10.9102 0.951171 11.0664L7.14258 17.2578C7.28906 17.4141 7.46484 17.4922 7.66016 17.4922Z" fill="#DCDCE8"/>
</svg>
