<svg width="18" height="15" viewBox="0 0 18 15" fill="none" xmlns="http://www.w3.org/2000/svg">
<path d="M17.4922 7.33984C17.4922 7.14453 17.4141 6.95898 17.2578 6.8125L11.1152 0.660156C10.9199 0.474609 10.7539 0.40625 10.5586 0.40625C10.168 0.40625 9.875 0.699219 9.875 1.08984C9.875 1.27539 9.93359 1.46094 10.0605 1.58789L12.5605 4.10742L15.4219 6.75391L13.2539 6.63672H1.04688C0.646484 6.63672 0.353516 6.92969 0.353516 7.33984C0.353516 7.74023 0.646484 8.0332 1.04688 8.0332H13.2539L15.4316 7.91602L12.5605 10.5625L10.0605 13.082C9.94336 13.209 9.875 13.3945 9.875 13.5801C9.875 13.9707 10.168 14.2637 10.5586 14.2637C10.7539 14.2637 10.9102 14.1953 11.0664 14.0488L17.2578 7.85742C17.4141 7.71094 17.4922 7.53516 17.4922 7.33984Z" fill="#4A5668"/>
</svg>
